<svg width="24" height="24" viewBox="0 0 24 24" fill="none" xmlns="http://www.w3.org/2000/svg">
<path fill-rule="evenodd" clip-rule="evenodd" d="M20.4908 3.52044C25.1771 8.20673 25.1771 15.8047 20.4908 20.491C15.8045 25.1773 8.20656 25.1773 3.52027 20.491C-1.16602 15.8047 -1.16602 8.20673 3.52027 3.52044C8.20656 -1.16585 15.8045 -1.16585 20.4908 3.52044ZM16.3534 7.65789C16.0189 7.32343 15.4915 7.29955 15.1295 7.58622L15.049 7.65789L12.0056 10.7004L8.96208 7.65789C8.62762 7.32343 8.1002 7.29954 7.73817 7.58622L7.65773 7.65789C7.32327 7.99235 7.29938 8.51977 7.58606 8.8818L7.65773 8.96224L10.7009 12.005L7.65773 15.0492C7.32327 15.3837 7.29938 15.9111 7.58606 16.2731L7.65773 16.3535C7.99219 16.688 8.51961 16.7119 8.88163 16.4252L8.96208 16.3535L12.0056 13.3096L15.049 16.3535C15.3835 16.688 15.9109 16.7119 16.2729 16.4252L16.3534 16.3535C16.6878 16.0191 16.7117 15.4917 16.4251 15.1296L16.3534 15.0492L13.3102 12.005L16.3534 8.96224C16.6878 8.62778 16.7117 8.10036 16.425 7.73834L16.3534 7.65789Z" fill="#C6C8CC"/>
</svg>
