<svg width="24" height="24" viewBox="0 0 24 24" fill="none" xmlns="http://www.w3.org/2000/svg">
<path fill-rule="evenodd" clip-rule="evenodd" d="M12 10.2932L16.9397 5.35349C17.411 4.88217 18.1752 4.88217 18.6465 5.35349C19.1178 5.82481 19.1178 6.58898 18.6465 7.0603L13.7068 12L18.6465 16.9397C19.1178 17.411 19.1178 18.1752 18.6465 18.6465C18.1752 19.1178 17.411 19.1178 16.9397 18.6465L12 13.7068L7.0603 18.6465C6.58898 19.1178 5.82481 19.1178 5.35349 18.6465C4.88217 18.1752 4.88217 17.411 5.35349 16.9397L10.2932 12L5.35349 7.0603C4.88217 6.58898 4.88217 5.82481 5.35349 5.35349C5.82481 4.88217 6.58898 4.88217 7.0603 5.35349L12 10.2932Z" fill="#C6C8CC"/>
</svg>
