<svg width="32" height="32" viewBox="0 0 32 32" fill="none" xmlns="http://www.w3.org/2000/svg">
<circle cx="16" cy="16" r="16" fill="black" fill-opacity="0.7"/>
<path fill-rule="evenodd" clip-rule="evenodd" d="M21.5502 11.5043C21.7739 11.2103 21.7515 10.7889 21.483 10.5205C21.1902 10.2276 20.7153 10.2276 20.4224 10.5205L16.003 14.9399L11.5836 10.5205L11.5067 10.4533C11.2128 10.2296 10.7914 10.252 10.5229 10.5205C10.23 10.8133 10.23 11.2882 10.5229 11.5811L14.9423 16.0005L10.5229 20.4199L10.4558 20.4967C10.232 20.7907 10.2544 21.2121 10.5229 21.4806C10.8158 21.7735 11.2907 21.7735 11.5836 21.4806L16.003 17.0612L20.4224 21.4806L20.4992 21.5477C20.7932 21.7715 21.2146 21.7491 21.483 21.4806C21.7759 21.1877 21.7759 20.7128 21.483 20.4199L17.0636 16.0005L21.483 11.5811L21.5502 11.5043Z" fill="white"/>
</svg>
