<svg width="24" height="24" viewBox="0 0 24 24" fill="none" xmlns="http://www.w3.org/2000/svg">
<g id="Coaching/Lock">
<path id="Combined Shape" fill-rule="evenodd" clip-rule="evenodd" d="M16.1613 7.90714C16.0501 5.73647 14.236 4 12 4C9.69189 4 7.83333 5.8503 7.83333 8.11852V10.1333H6.93333C6.04967 10.1333 5.33333 10.8497 5.33333 11.7333V17.0667C5.33333 17.9503 6.04967 18.6667 6.93333 18.6667H17.0667C17.9503 18.6667 18.6667 17.9503 18.6667 17.0667V11.7333C18.6667 10.8497 17.9503 10.1333 17.0667 10.1333H16.1667V8.11852L16.1613 7.90714ZM14.5 10.1333V8.11852C14.5 6.7212 13.3738 5.6 12 5.6C10.6834 5.6 9.59427 6.62971 9.5058 7.94535L9.49999 8.11852V10.1333H14.5ZM13.1111 14.4C13.1111 14.9891 12.6136 15.4667 12 15.4667C11.3863 15.4667 10.8889 14.9891 10.8889 14.4C10.8889 13.8109 11.3863 13.3333 12 13.3333C12.6136 13.3333 13.1111 13.8109 13.1111 14.4Z" fill="#C6C8CC"/>
</g>
</svg>
