<svg width="51" height="50" viewBox="0 0 51 50" fill="none" xmlns="http://www.w3.org/2000/svg">
<path d="M22.8955 5.10547C24.3538 3.8763 26.708 3.8763 28.1247 5.10547L31.4163 7.91797C32.0413 8.4388 33.2288 8.8763 34.0622 8.8763H37.6038C39.8122 8.8763 41.6247 10.6888 41.6247 12.8971V16.4388C41.6247 17.2721 42.0622 18.4388 42.583 19.0638L45.3955 22.3555C46.6247 23.8138 46.6247 26.168 45.3955 27.5846L42.583 30.8763C42.0622 31.5013 41.6247 32.668 41.6247 33.5013V37.043C41.6247 39.2513 39.8122 41.0638 37.6038 41.0638H34.0622C33.2288 41.0638 32.0622 41.5013 31.4372 42.0221L28.1455 44.8346C26.6872 46.0638 24.333 46.0638 22.9163 44.8346L19.6247 42.0221C18.9997 41.5013 17.8122 41.0638 16.9997 41.0638H13.3538C11.1455 41.0638 9.33301 39.2513 9.33301 37.043V33.4805C9.33301 32.668 8.91634 31.4805 8.39551 30.8763L5.58301 27.5638C4.37467 26.1263 4.37467 23.793 5.58301 22.3555L8.39551 19.043C8.91634 18.418 9.33301 17.2513 9.33301 16.4388V12.918C9.33301 10.7096 11.1455 8.89714 13.3538 8.89714H16.958C17.7913 8.89714 18.958 8.45964 19.583 7.9388L22.8955 5.10547Z" fill="#FAFAFA" stroke="#DDDEE1" stroke-width="2.5" stroke-linecap="round" stroke-linejoin="round"/>
<path d="M25.5 16.9375V27" stroke="#DDDEE1" stroke-width="2.5" stroke-linecap="round" stroke-linejoin="round"/>
<path d="M25.4888 33.334H25.5075" stroke="#DDDEE1" stroke-width="2.5" stroke-linecap="round" stroke-linejoin="round"/>
</svg>
