<svg width="12" height="12" viewBox="0 0 12 12" fill="none" xmlns="http://www.w3.org/2000/svg">
<path fill-rule="evenodd" clip-rule="evenodd" d="M6.16299 9.6502C6.06003 9.60052 5.94002 9.60052 5.83705 9.6502L3.16005 10.942C2.88922 11.0727 2.58244 10.8474 2.62605 10.5499L3.04788 7.67126C3.06497 7.55463 3.02623 7.43676 2.94329 7.35301L0.882849 5.27251C0.66917 5.05675 0.787141 4.68975 1.08652 4.63892L4.01156 4.14225C4.12559 4.12288 4.2243 4.05198 4.27907 3.95011L5.66973 1.36344C5.81125 1.10021 6.18879 1.10021 6.33031 1.36344L7.72097 3.95011C7.77574 4.05198 7.87446 4.12288 7.98849 4.14225L10.9135 4.63892C11.2129 4.68975 11.3309 5.05675 11.1172 5.2725L9.05676 7.35301C8.97381 7.43676 8.93507 7.55463 8.95216 7.67126L9.374 10.5499C9.4176 10.8474 9.11082 11.0727 8.83999 10.942L6.16299 9.6502Z" fill="#FFE12D"/>
<path fill-rule="evenodd" clip-rule="evenodd" d="M5.33932 1.18587C5.62236 0.659398 6.37744 0.659397 6.66049 1.18587L8.05114 3.77254L10.9762 4.26921C11.5749 4.37088 11.8109 5.10486 11.3835 5.53638L9.32308 7.61689L9.74492 10.4955C9.83212 11.0906 9.21856 11.5411 8.6769 11.2797L5.9999 9.98794L3.32291 11.2797C2.78124 11.5411 2.16769 11.0906 2.25489 10.4955L2.67672 7.61689L0.616284 5.53638C0.188927 5.10486 0.424867 4.37088 1.02362 4.26921L3.94866 3.77254L5.33932 1.18587ZM7.39056 4.12768L5.9999 1.54102L4.60924 4.12768C4.49971 4.33143 4.30228 4.47323 4.07421 4.51195L1.14918 5.00863L3.20961 7.08913C3.3755 7.25663 3.45298 7.49238 3.4188 7.72563L2.99696 10.6042L5.67396 9.31247C5.87989 9.21309 6.11991 9.21309 6.32585 9.31247L9.00284 10.6042L8.58101 7.72563C8.54683 7.49238 8.62431 7.25663 8.79019 7.08913L10.8506 5.00863L7.92559 4.51195C7.69753 4.47323 7.5001 4.33143 7.39056 4.12768Z" fill="#EFD700"/>
</svg>
