<svg width="16" height="17" viewBox="0 0 16 17" fill="none" xmlns="http://www.w3.org/2000/svg">
<path fill-rule="evenodd" clip-rule="evenodd" d="M13.6567 2.84345C15.1833 4.37004 15.218 6.82358 13.7608 8.39231L13.6567 8.5003L12.7139 9.44311C12.4535 9.70346 12.0314 9.70346 11.771 9.44311C11.5293 9.20136 11.512 8.82013 11.7192 8.55845L11.771 8.5003L12.7139 7.55749C13.7553 6.51609 13.7553 4.82766 12.7139 3.78626C11.704 2.77642 10.0858 2.74582 9.03904 3.69445L8.94262 3.78626L7.99981 4.72907C7.73946 4.98942 7.31735 4.98942 7.057 4.72907C6.81525 4.48731 6.79798 4.10608 7.0052 3.8444L7.057 3.78626L7.99981 2.84345C9.56191 1.28135 12.0946 1.28135 13.6567 2.84345ZM9.41403 11.8001C9.65578 12.0419 9.67305 12.4231 9.46583 12.6848L9.41403 12.7429L7.99981 14.1572C6.43772 15.7193 3.90506 15.7193 2.34296 14.1572C0.816365 12.6306 0.781669 10.177 2.23887 8.60829L2.34296 8.5003L3.75717 7.08609C4.01752 6.82574 4.43963 6.82574 4.69998 7.08609C4.94174 7.32784 4.959 7.70907 4.75179 7.97075L4.69998 8.0289L3.28577 9.44311C2.24437 10.4845 2.24437 12.1729 3.28577 13.2143C4.29561 14.2242 5.91387 14.2548 6.96059 13.3062L7.057 13.2143L8.47122 11.8001C8.73157 11.5398 9.15368 11.5398 9.41403 11.8001ZM9.88543 6.61468C9.62508 6.35433 9.20297 6.35433 8.94262 6.61468L6.1142 9.44311C5.85385 9.70346 5.85385 10.1256 6.1142 10.3859C6.37455 10.6463 6.79666 10.6463 7.05701 10.3859L9.88543 7.55749C10.1458 7.29714 10.1458 6.87503 9.88543 6.61468Z" fill="#57595E"/>
</svg>
