<svg width="25" height="25" viewBox="0 0 25 25" fill="none" xmlns="http://www.w3.org/2000/svg">
<path fill-rule="evenodd" clip-rule="evenodd" d="M12.5 3.69922C11.8373 3.69922 11.3 4.23648 11.3 4.89922V11.4992H4.7C4.03726 11.4992 3.5 12.0365 3.5 12.6992C3.5 13.362 4.03726 13.8992 4.7 13.8992H11.3V20.4992C11.3 21.162 11.8373 21.6992 12.5 21.6992C13.1627 21.6992 13.7 21.162 13.7 20.4992V13.8992H20.3C20.9627 13.8992 21.5 13.362 21.5 12.6992C21.5 12.0365 20.9627 11.4992 20.3 11.4992H13.7V4.89922C13.7 4.23648 13.1627 3.69922 12.5 3.69922Z" fill="#DDDEE1"/>
</svg>
