<svg width="16" height="17" viewBox="0 0 16 17" fill="none" xmlns="http://www.w3.org/2000/svg">
<path fill-rule="evenodd" clip-rule="evenodd" d="M13.6569 2.84345C15.1835 4.37004 15.2182 6.82358 13.761 8.39231L13.6569 8.5003L12.7141 9.44311C12.4538 9.70346 12.0316 9.70346 11.7713 9.44311C11.5295 9.20136 11.5123 8.82013 11.7195 8.55845L11.7713 8.5003L12.7141 7.55749C13.7555 6.51609 13.7555 4.82766 12.7141 3.78626C11.7043 2.77642 10.086 2.74582 9.03929 3.69445L8.94287 3.78626L8.00006 4.72907C7.73971 4.98942 7.3176 4.98942 7.05725 4.72907C6.8155 4.48731 6.79823 4.10608 7.00544 3.8444L7.05725 3.78626L8.00006 2.84345C9.56215 1.28135 12.0948 1.28135 13.6569 2.84345ZM9.41427 11.8001C9.65602 12.0419 9.67329 12.4231 9.46607 12.6848L9.41427 12.7429L8.00006 14.1572C6.43796 15.7193 3.9053 15.7193 2.3432 14.1572C0.816609 12.6306 0.781913 10.177 2.23912 8.60829L2.3432 8.5003L3.75742 7.08609C4.01777 6.82574 4.43988 6.82574 4.70023 7.08609C4.94198 7.32784 4.95925 7.70907 4.75203 7.97075L4.70023 8.0289L3.28601 9.44311C2.24461 10.4845 2.24461 12.1729 3.28601 13.2143C4.29585 14.2242 5.91412 14.2548 6.96083 13.3062L7.05725 13.2143L8.47146 11.8001C8.73181 11.5398 9.15392 11.5398 9.41427 11.8001ZM9.88568 6.61468C9.62533 6.35433 9.20322 6.35433 8.94287 6.61468L6.11444 9.44311C5.85409 9.70346 5.85409 10.1256 6.11444 10.3859C6.37479 10.6463 6.7969 10.6463 7.05725 10.3859L9.88568 7.55749C10.146 7.29714 10.146 6.87503 9.88568 6.61468Z" fill="#57595E"/>
</svg>
