<svg width="25" height="24" viewBox="0 0 25 24" fill="none" xmlns="http://www.w3.org/2000/svg">
<path fill-rule="evenodd" clip-rule="evenodd" d="M20.9852 3.51517C23.2751 5.80506 23.3272 9.48538 21.1414 11.8385L20.9852 12.0005L19.571 13.4147C19.1805 13.8052 18.5473 13.8052 18.1568 13.4147C17.7942 13.052 17.7683 12.4802 18.0791 12.0877L18.1568 12.0005L19.571 10.5862C21.1331 9.02414 21.1331 6.49148 19.571 4.92939C18.0563 3.41462 15.6289 3.36872 14.0588 4.79168L13.9142 4.92939L12.5 6.3436C12.1094 6.73412 11.4763 6.73412 11.0858 6.3436C10.7231 5.98097 10.6972 5.40912 11.008 5.01661L11.0858 4.92939L12.5 3.51517C14.8431 1.17203 18.6421 1.17203 20.9852 3.51517ZM14.6213 16.9502C14.9839 17.3128 15.0098 17.8847 14.699 18.2772L14.6213 18.3644L12.5 20.4857C10.1568 22.8289 6.35783 22.8289 4.01468 20.4857C1.72479 18.1958 1.67275 14.5155 3.85856 12.1624L4.01468 12.0005L6.136 9.87913C6.52653 9.48861 7.15969 9.48861 7.55022 9.87913C7.91285 10.2418 7.93875 10.8136 7.62792 11.2061L7.55022 11.2933L5.4289 13.4147C3.8668 14.9768 3.8668 17.5094 5.4289 19.0715C6.94366 20.5863 9.37105 20.6322 10.9411 19.2092L11.0858 19.0715L13.2071 16.9502C13.5976 16.5597 14.2308 16.5597 14.6213 16.9502ZM15.3284 9.17203C14.9379 8.7815 14.3047 8.7815 13.9142 9.17203L9.67154 13.4147C9.28101 13.8052 9.28101 14.4384 9.67154 14.8289C10.0621 15.2194 10.6952 15.2194 11.0858 14.8289L15.3284 10.5862C15.7189 10.1957 15.7189 9.56255 15.3284 9.17203Z" fill="#C6C8CC"/>
</svg>
