<svg width="106" height="32" viewBox="0 0 106 32" fill="none" xmlns="http://www.w3.org/2000/svg">
<path fill-rule="evenodd" clip-rule="evenodd" d="M43.0362 12.9364C43.0362 12.1483 42.5176 11.6298 41.7478 11.6298C41.2285 11.6298 40.7998 11.8086 40.4596 12.1483V16.2468C40.4596 16.9449 39.8864 17.4996 39.1173 17.4996C38.3476 17.4996 37.7754 16.9449 37.7754 16.2468V8.10848C37.7754 7.41081 38.3476 6.85547 39.1173 6.85547C39.8864 6.85547 40.4596 7.41081 40.4596 8.10848V9.82209C40.9782 9.35675 41.6409 9.12397 42.4461 9.12397C44.4505 9.12397 45.7209 10.2155 45.7209 12.5961V16.2468C45.7209 16.9449 45.1486 17.4996 44.379 17.4996C43.6091 17.4996 43.0362 16.9449 43.0362 16.2468V12.9364Z" fill="black"/>
<path fill-rule="evenodd" clip-rule="evenodd" d="M52.6469 12.3997C52.6469 11.8089 52.1459 11.2897 51.3408 11.2897C50.5356 11.2897 50.0163 11.6654 49.7477 12.3997H52.6469ZM54.1863 10.1091C54.956 10.8243 55.3317 11.7374 55.3317 12.8467V13.2047C55.3317 13.8494 54.8125 14.1891 54.2937 14.1891H49.8375C50.0702 14.9228 50.6964 15.2988 51.7164 15.2988C52.0561 15.2988 52.4323 15.2451 52.8442 15.12C52.9694 15.0839 53.0946 15.066 53.2022 15.066C53.6493 15.066 53.9714 15.2806 54.1324 15.7107C54.1863 15.8174 54.2039 15.9428 54.2039 16.0865C54.2039 16.5694 53.9536 16.9274 53.4704 17.1602C52.987 17.4108 52.3072 17.5357 51.4299 17.5357C50.1057 17.5357 49.05 17.1419 48.2626 16.3727C47.4569 15.6031 47.0635 14.5653 47.0635 13.294C47.0635 12.0954 47.4745 11.0754 48.2804 10.2697C49.0861 9.46439 50.1233 9.05273 51.4299 9.05273C52.5039 9.05273 53.4172 9.4107 54.1863 10.1091Z" fill="black"/>
<path fill-rule="evenodd" clip-rule="evenodd" d="M59.359 14.1534C59.359 14.7795 59.4842 14.9408 59.9852 15.0301C60.5935 15.1551 60.8985 15.5131 60.8985 16.1038C60.8985 16.7661 60.6113 17.1955 60.0571 17.3922C59.7702 17.482 59.4842 17.5357 59.1977 17.5357C57.4977 17.5357 56.6748 16.4618 56.6748 15.0123V8.10848C56.6748 7.41081 57.2473 6.85547 58.0169 6.85547C58.7859 6.85547 59.359 7.41081 59.359 8.10848V14.1534Z" fill="black"/>
<path fill-rule="evenodd" clip-rule="evenodd" d="M64.8353 14.1534C64.8353 14.7795 64.9605 14.9408 65.4614 15.0301C66.0705 15.1551 66.3741 15.5131 66.3741 16.1038C66.3741 16.7661 66.0881 17.1955 65.5329 17.3922C65.2469 17.482 64.9605 17.5357 64.674 17.5357C62.9739 17.5357 62.1504 16.4618 62.1504 15.0123V8.10848C62.1504 7.41081 62.7235 6.85547 63.4925 6.85547C64.2628 6.85547 64.8353 7.41081 64.8353 8.10848V14.1534Z" fill="black"/>
<path fill-rule="evenodd" clip-rule="evenodd" d="M70.0434 13.294C70.0434 14.2964 70.7233 15.0302 71.6537 15.0302C72.5847 15.0302 73.2652 14.3681 73.2652 13.294C73.2652 12.7754 73.1032 12.3638 72.7996 12.0417C71.8863 11.0217 69.9359 11.7013 70.0434 13.294ZM71.6537 17.536C70.3116 17.536 69.2199 17.1421 68.4149 16.3369C67.5913 15.5316 67.1797 14.5294 67.1797 13.294C67.1797 12.0593 67.5913 11.0571 68.4149 10.2518C69.2199 9.44657 70.3116 9.05273 71.6537 9.05273C72.9963 9.05273 74.088 9.44657 74.9109 10.2518C75.7166 11.0571 76.1285 12.0593 76.1285 13.294C76.1285 14.5294 75.7166 15.5316 74.9109 16.3369C74.088 17.1421 72.9963 17.536 71.6537 17.536Z" fill="black"/>
<path fill-rule="evenodd" clip-rule="evenodd" d="M80.3343 14.7971C80.6208 14.9584 80.9605 15.0299 81.3367 15.0299C82.3387 15.0299 83.0546 14.4037 83.0546 13.3298C83.0546 12.1668 82.3208 11.5583 81.4621 11.5583C81.0496 11.5583 80.674 11.7373 80.3343 12.0768V14.7971ZM80.3343 9.48194C80.889 9.19547 81.4797 9.05246 82.1059 9.05246C83.2696 9.05246 84.2 9.42803 84.8975 10.1976C85.5782 10.9675 85.9184 11.9516 85.9184 13.1686C85.9184 15.8356 84.1461 17.5357 81.2115 17.5357C80.2628 17.5357 79.4039 17.3922 78.6335 17.0879C77.972 16.8376 77.6494 16.4081 77.6494 15.7817V8.10848C77.6494 7.41081 78.2226 6.85547 78.9915 6.85547C79.7618 6.85547 80.3343 7.41081 80.3343 8.10848V9.48194Z" fill="black"/>
<path fill-rule="evenodd" clip-rule="evenodd" d="M89.8559 13.294C89.8559 14.2964 90.5353 15.0302 91.4662 15.0302C92.3974 15.0302 93.0772 14.3681 93.0772 13.294C93.0772 12.7754 92.9159 12.3638 92.6117 12.0417C91.699 11.0217 89.7484 11.7013 89.8559 13.294ZM91.4662 17.536C90.1241 17.536 89.0326 17.1421 88.2267 16.3369C87.4034 15.5316 86.9922 14.5294 86.9922 13.294C86.9922 12.0593 87.4034 11.0571 88.2267 10.2518C89.0326 9.44657 90.1241 9.05273 91.4662 9.05273C92.8084 9.05273 93.9001 9.44657 94.7236 10.2518C95.5291 11.0571 95.9403 12.0593 95.9403 13.294C95.9403 14.5294 95.5291 15.5316 94.7236 16.3369C93.9001 17.1421 92.8084 17.536 91.4662 17.536Z" fill="black"/>
<mask id="mask0_5754_14145" style="mask-type:luminance" maskUnits="userSpaceOnUse" x="96" y="6" width="7" height="12">
<path fill-rule="evenodd" clip-rule="evenodd" d="M96.6562 6.85547H102.777V17.5361H96.6562V6.85547Z" fill="white"/>
</mask>
<g mask="url(#mask0_5754_14145)">
<path fill-rule="evenodd" clip-rule="evenodd" d="M102.008 17.1782C101.488 17.411 100.916 17.5361 100.307 17.5361C98.5359 17.5361 97.8021 16.4086 97.8021 14.2605V11.7732C97.1577 11.7732 96.6562 11.3079 96.6562 10.5202C96.6562 9.75103 97.1755 9.2681 97.8021 9.2681L97.8017 8.1078C97.8017 7.41013 98.3739 6.85547 99.1438 6.85547C99.9127 6.85547 100.486 7.41013 100.486 8.1078L100.487 9.2681H101.113C101.811 9.2681 102.365 9.85818 102.365 10.5202C102.365 11.1825 101.811 11.7732 101.113 11.7732H100.487V14.1355C100.487 14.7263 100.665 15.0306 101.005 15.0306C101.22 15.0306 101.596 14.9767 101.721 14.9767C102.169 14.9767 102.491 15.1916 102.67 15.6211C102.742 15.7824 102.777 15.943 102.777 16.1043C102.777 16.5876 102.527 16.9456 102.008 17.1782Z" fill="black"/>
</g>
<path fill-rule="evenodd" clip-rule="evenodd" d="M65.9008 26.3581H64.4126V23.1661C64.4126 22.8916 64.2614 22.7402 63.9867 22.7402H63.8272C63.5525 22.7402 63.4014 22.8916 63.4014 23.1661V26.9434C63.4014 27.2181 63.5525 27.369 63.8272 27.369H65.9008C66.1754 27.369 66.3267 27.2181 66.3267 26.9434V26.7839C66.3267 26.5092 66.1754 26.3581 65.9008 26.3581Z" fill="#9B9B9B"/>
<path fill-rule="evenodd" clip-rule="evenodd" d="M41.9733 26.5675C41.8206 26.3201 41.9061 26.1367 42.1885 26.0449L42.274 26.0164C42.5007 25.9436 42.6252 26.0151 42.809 26.2082C43.0623 26.4764 43.388 26.628 43.7751 26.628C44.2637 26.628 44.5551 26.4222 44.5551 26.0774C44.5551 25.1774 42.0157 25.7663 42.0157 24.0292C42.0157 23.2274 42.6969 22.6855 43.6765 22.6855C44.4053 22.6855 45.0691 22.9761 45.3538 23.4414C45.5241 23.713 45.4472 23.9072 45.1519 23.9774L45.0464 24.0049C44.768 24.0678 44.6663 23.9532 44.4721 23.7854C44.2546 23.5914 44.0293 23.4908 43.72 23.4908C43.2777 23.4908 43.0034 23.6877 43.0034 24.0053C43.0034 24.9861 45.5663 24.3031 45.5663 26.0478C45.5663 26.8804 44.8352 27.4264 43.7832 27.4264C42.9953 27.4264 42.2866 27.0802 41.9733 26.5675Z" fill="#9B9B9B"/>
<path fill-rule="evenodd" clip-rule="evenodd" d="M71.6911 26.5675C71.5383 26.3201 71.6238 26.1367 71.9062 26.0449L71.9917 26.0164C72.2184 25.9436 72.3429 26.0151 72.5268 26.2082C72.7801 26.4764 73.1058 26.628 73.4929 26.628C73.9814 26.628 74.2729 26.4222 74.2729 26.0774C74.2729 25.1774 71.7335 25.7663 71.7335 24.0292C71.7335 23.2274 72.4147 22.6855 73.3943 22.6855C74.1231 22.6855 74.7869 22.9761 75.0716 23.4414C75.2419 23.713 75.165 23.9072 74.8697 23.9774L74.7641 24.0049C74.4858 24.0678 74.3841 23.9532 74.1899 23.7854C73.9724 23.5914 73.7471 23.4908 73.4378 23.4908C72.9955 23.4908 72.7212 23.6877 72.7212 24.0053C72.7212 24.9861 75.2841 24.3031 75.2841 26.0478C75.2841 26.8804 74.553 27.4264 73.501 27.4264C72.7131 27.4264 72.0044 27.0802 71.6911 26.5675Z" fill="#9B9B9B"/>
<path fill-rule="evenodd" clip-rule="evenodd" d="M78.6201 26.9434V23.6409H77.9159C77.6414 23.6409 77.4902 23.4896 77.4902 23.2153V23.1661C77.4902 22.8916 77.6414 22.7402 77.9159 22.7402H80.3269C80.6017 22.7402 80.753 22.8916 80.753 23.1661V23.2153C80.753 23.4896 80.6017 23.6409 80.3269 23.6409H79.6293V26.9434C79.6293 27.2181 79.4781 27.3693 79.2034 27.3693H79.0459C78.7712 27.3693 78.6201 27.2181 78.6201 26.9434Z" fill="#9B9B9B"/>
<path fill-rule="evenodd" clip-rule="evenodd" d="M86.2644 25.052C86.2644 24.1225 85.7909 23.5827 85.0763 23.5827C84.3424 23.5827 83.8732 24.1182 83.8732 25.052C83.8732 26.0118 84.3297 26.5322 85.0678 26.5322C85.7952 26.5322 86.2644 26.0118 86.2644 25.052ZM82.8789 25.0543C82.8789 23.4047 83.917 22.6895 85.0804 22.6895C86.2251 22.6895 87.2733 23.4047 87.2733 25.0543C87.2733 26.7356 86.2315 27.422 85.0678 27.422C83.9041 27.422 82.8789 26.7356 82.8789 25.0543Z" fill="#9B9B9B"/>
<path fill-rule="evenodd" clip-rule="evenodd" d="M54.1973 26.9434V23.1661C54.1973 22.8916 54.3484 22.7402 54.6231 22.7402H54.7826C55.0573 22.7402 55.2085 22.8916 55.2085 23.1661V26.9434C55.2085 27.2181 55.0573 27.3693 54.7826 27.3693H54.6231C54.3484 27.3693 54.1973 27.2181 54.1973 26.9434Z" fill="#9B9B9B"/>
<path fill-rule="evenodd" clip-rule="evenodd" d="M98.0093 25.5032C98.2534 25.5029 98.388 25.3683 98.3878 25.124L98.3876 24.9821C98.3876 24.7376 98.2527 24.6034 98.0086 24.6036L96.6284 24.6056V23.6416L98.2757 23.6396C98.5197 23.6393 98.6544 23.5049 98.6542 23.2606L98.654 23.1187C98.6537 22.8744 98.5191 22.74 98.275 22.7402L96.2185 22.7425C96.2127 22.7425 96.2086 22.7402 96.2028 22.7402H96.0433C95.7685 22.7402 95.6172 22.8916 95.6172 23.1661V26.9434C95.6172 27.2181 95.7685 27.369 96.0433 27.369H96.2028C96.2032 27.369 96.2034 27.3688 96.2039 27.3688L98.2757 27.3666C98.5197 27.3666 98.6544 27.2319 98.6542 26.9874L98.654 26.8455C98.6537 26.6012 98.5191 26.4668 98.275 26.467L96.6284 26.469V25.5052L98.0093 25.5032Z" fill="#9B9B9B"/>
<path fill-rule="evenodd" clip-rule="evenodd" d="M60.5717 26.3581H59.0835V23.1661C59.0835 22.8916 58.9323 22.7402 58.6576 22.7402H58.4981C58.2234 22.7402 58.0723 22.8916 58.0723 23.1661V26.9434C58.0723 27.2181 58.2234 27.369 58.4981 27.369H60.5717C60.8463 27.369 60.9976 27.2181 60.9976 26.9434V26.7839C60.9976 26.5092 60.8463 26.3581 60.5717 26.3581Z" fill="#9B9B9B"/>
<path fill-rule="evenodd" clip-rule="evenodd" d="M51.6017 26.5782L50.2817 24.7753L51.454 23.5078C51.6198 23.3285 51.6126 23.1384 51.433 22.9726L51.329 22.876C51.1495 22.7102 50.9593 22.7179 50.7935 22.8972L49.0844 24.745V23.1661C49.0844 22.8916 48.9333 22.7402 48.6588 22.7402H48.4993C48.2246 22.7402 48.0732 22.8916 48.0732 23.1661V26.9434C48.0732 27.2181 48.2246 27.3693 48.4993 27.3693H48.6588C48.9333 27.3693 49.0844 27.2181 49.0844 26.9434V26.0504L49.5825 25.5314L50.7859 27.1755C50.9481 27.397 51.1594 27.4297 51.3809 27.2678L51.5097 27.1735C51.7312 27.0113 51.7639 26.7997 51.6017 26.5782Z" fill="#9B9B9B"/>
<path fill-rule="evenodd" clip-rule="evenodd" d="M90.621 23.6585C90.621 23.6585 90.8811 23.6569 91.3766 23.6569C91.9074 23.6569 92.1869 23.825 92.1891 24.1714C92.1916 24.5813 91.8914 24.7412 91.3742 24.7412H90.621V23.6585ZM93.0061 26.617L92.3177 25.4249C92.8144 25.2034 93.1056 24.7446 93.1056 24.1707C93.1056 23.5283 92.7718 23.0677 92.2027 22.8683C92.0012 22.798 91.7716 22.7587 91.5147 22.7578H90.0648C89.79 22.7578 89.6357 22.9137 89.6357 23.1857V25.4727V26.9303C89.6357 27.2025 89.7871 27.3523 90.0618 27.3523H90.1951C90.4699 27.3523 90.621 27.2025 90.621 26.9303V25.6425L91.3101 25.6414L92.1566 27.1076C92.1702 27.131 92.1864 27.1516 92.2031 27.1719C92.2872 27.2745 92.407 27.3363 92.534 27.3487C92.6326 27.3586 92.7348 27.3399 92.8266 27.2869C92.91 27.2389 92.973 27.1689 93.0145 27.0889C93.0727 26.9772 93.0866 26.8457 93.0499 26.7219C93.0393 26.6862 93.0255 26.6508 93.0061 26.617Z" fill="#9B9B9B"/>
<mask id="mask1_5754_14145" style="mask-type:luminance" maskUnits="userSpaceOnUse" x="1" y="1" width="30" height="30">
<path fill-rule="evenodd" clip-rule="evenodd" d="M7.11538 1.22461C3.86185 1.22461 1.2002 3.88626 1.2002 7.1398V24.8849C1.2002 28.1384 3.86185 30.8001 7.11538 30.8001H24.8605C28.114 30.8001 30.7757 28.1384 30.7757 24.8849V7.1398C30.7757 3.88626 28.114 1.22461 24.8605 1.22461H7.11538Z" fill="white"/>
</mask>
<g mask="url(#mask1_5754_14145)">
<path fill-rule="evenodd" clip-rule="evenodd" d="M1.2002 30.7999H30.7757V1.22461H1.2002V30.7999Z" fill="#FFE100"/>
<path fill-rule="evenodd" clip-rule="evenodd" d="M5.75879 31.5833H25.8908L26.2538 22.6963L25.4374 17.1643L24.3971 16.0352L21.7195 18.8874L20.9133 21.1131L17.2759 19.8677L10.9402 20.917L9.20473 17.6179L7.55495 17.1492L6.66578 16.8923L5.94014 19.8677L5.75879 31.5833Z" fill="white"/>
<path fill-rule="evenodd" clip-rule="evenodd" d="M9.17252 21.171C9.17252 21.171 8.28831 21.3107 7.54372 21.6984C7.54372 21.6984 7.44402 19.819 7.92492 19.3379C7.92492 19.3379 8.4435 19.5732 9.17252 21.171Z" fill="#F8DCCD"/>
<path fill-rule="evenodd" clip-rule="evenodd" d="M22.8213 21.171C22.8213 21.171 23.7055 21.3107 24.4501 21.6984C24.4501 21.6984 24.5498 19.819 24.0689 19.3379C24.0689 19.3379 23.5503 19.5732 22.8213 21.171Z" fill="#F8DCCD"/>
<path fill-rule="evenodd" clip-rule="evenodd" d="M16.6921 28.8202C16.4656 28.5938 16.0878 28.5938 15.8611 28.8202L15.6859 28.9955L15.5104 28.8202C15.2839 28.5938 14.9061 28.5938 14.6796 28.8202C14.4531 29.0467 14.4531 29.4248 14.6796 29.6512L15.2704 30.242C15.4968 30.4684 15.8749 30.4684 16.1013 30.242L16.6921 29.6512C16.9186 29.4248 16.9186 29.0467 16.6921 28.8202Z" fill="black"/>
<path fill-rule="evenodd" clip-rule="evenodd" d="M15.6491 32.6628C15.385 32.6628 15.1709 32.4487 15.1709 32.1846V29.8886C15.1709 29.6244 15.385 29.4102 15.6491 29.4102C15.9132 29.4102 16.1275 29.6244 16.1275 29.8886V32.1846C16.1275 32.4487 15.9132 32.6628 15.6491 32.6628Z" fill="black"/>
<path fill-rule="evenodd" clip-rule="evenodd" d="M21.0363 28.0453C21.0239 28.3568 20.3878 28.5839 19.6161 28.5519C18.8438 28.5199 18.2282 28.2417 18.2404 27.9295C18.2528 27.618 18.8889 27.3909 19.6612 27.4229C20.4331 27.455 21.0487 27.7335 21.0363 28.0453Z" fill="#F8DCCD"/>
<path fill-rule="evenodd" clip-rule="evenodd" d="M13.4318 28.0453C13.4194 28.3568 12.7833 28.5839 12.0114 28.5519C11.2391 28.5199 10.6235 28.2417 10.6359 27.9295C10.6483 27.618 11.2842 27.3909 12.0565 27.4229C12.8284 27.455 13.4442 27.7335 13.4318 28.0453Z" fill="#F8DCCD"/>
<path fill-rule="evenodd" clip-rule="evenodd" d="M21.1485 25.6895H19.0309C19.0255 25.6895 19.0212 25.6924 19.0163 25.6924C19.0111 25.6924 19.0068 25.6895 19.0014 25.6895C18.6603 25.6895 18.3838 25.966 18.3838 26.307V26.8439C18.3838 26.85 18.3869 26.8549 18.3874 26.8608C18.3869 26.8728 18.3838 26.8836 18.3838 26.8953C18.3838 27.5614 18.9238 28.1012 19.5897 28.1012C20.2557 28.1012 20.7955 27.5614 20.7955 26.8953C20.7955 26.804 20.7836 26.716 20.7644 26.6307H21.1485C21.4084 26.6307 21.6191 26.4198 21.6191 26.16C21.6191 25.9001 21.4084 25.6895 21.1485 25.6895Z" fill="black"/>
<path fill-rule="evenodd" clip-rule="evenodd" d="M13.7354 25.6895H11.6178C11.6124 25.6895 11.6081 25.6924 11.603 25.6924C11.598 25.6924 11.5937 25.6895 11.5883 25.6895C11.2472 25.6895 10.9707 25.966 10.9707 26.307V26.8439C10.9707 26.85 10.9739 26.8549 10.9741 26.8608C10.9739 26.8728 10.9707 26.8836 10.9707 26.8953C10.9707 27.5614 11.5107 28.1012 12.1766 28.1012C12.8427 28.1012 13.3824 27.5614 13.3824 26.8953C13.3824 26.804 13.3705 26.716 13.3513 26.6307H13.7354C13.9953 26.6307 14.206 26.4198 14.206 26.16C14.206 25.9001 13.9953 25.6895 13.7354 25.6895Z" fill="black"/>
<path fill-rule="evenodd" clip-rule="evenodd" d="M16.0563 96.6932C16.1377 96.6932 16.2214 96.7133 16.3048 96.7512C16.5042 96.8412 16.6003 97.064 16.6003 97.2826V104.444C16.6003 109.044 18.4152 109.915 21.7642 109.915C21.9545 109.915 22.1474 109.913 22.3423 109.909C24.8548 109.853 25.3741 107.791 25.6635 105.863C25.6831 105.73 25.7011 105.611 25.719 105.507C26.3679 101.732 27.1723 94.2627 27.2339 93.3711C27.2417 93.2565 27.2848 93.1469 27.3577 93.0578C28.9387 91.1161 30.2323 87.0715 31.0003 81.6684C31.0287 81.4676 31.1639 81.2985 31.3531 81.2263C31.5428 81.1539 31.7564 81.1904 31.9109 81.3213C33.6965 82.8287 35.5157 84.1162 37.3227 85.1525C38.4764 84.2585 39.0345 83.3989 38.9819 82.5948C38.9043 81.4097 37.4844 80.454 36.7308 80.0276C35.7606 80.1386 35.4674 80.1612 35.3032 80.1612C35.0302 80.1612 34.8329 80.0644 34.7169 79.8743C34.6698 79.7967 34.5778 79.5986 34.6788 79.3505C35.1031 77.172 31.5214 68.0714 29.9857 64.1696C29.5558 63.0774 29.2163 62.2146 29.0587 61.7612C28.5426 60.2782 26.8768 48.485 26.3165 42.3481C25.9145 37.9446 25.5424 33.114 25.5424 27.6296C25.5424 26.7472 25.5823 25.8334 25.6211 24.9499C25.712 22.8785 25.806 20.7368 25.3993 18.7882C25.2967 18.2953 24.9958 17.149 24.4249 17.149C23.6104 17.149 22.2047 18.8915 21.6899 20.539C21.6857 20.5525 21.6807 20.5663 21.6753 20.5796L21.5952 20.7801C21.4912 21.0397 21.2108 21.1816 20.9408 21.1131C19.3154 20.7 17.5269 20.4907 15.6248 20.4907C12.9536 20.4907 10.9874 20.9125 10.968 20.917C10.6863 20.9786 10.4034 20.8144 10.3175 20.539C9.80273 18.8915 8.39679 17.149 7.5825 17.149C7.0116 17.149 6.7107 18.2953 6.60784 18.7882C6.20115 20.7368 6.29521 22.8785 6.38611 24.9497C6.42491 25.8334 6.46506 26.7472 6.46506 27.6296C6.46506 31.106 6.22889 34.4247 6.00039 37.6345C5.89167 39.1606 5.77934 40.7391 5.69227 42.328C5.0413 54.2234 4.15257 59.9572 2.72115 61.5007C-1.99607 66.589 -6.99502 68.9245 -10.6449 70.6297C-15.2364 72.7753 -17.5413 73.8519 -16.2567 77.9464C-15.6337 79.9322 -13.0298 80.3491 -10.955 80.3491C-7.41795 80.3491 -3.29036 79.1804 -0.95171 78.0948C-0.777575 78.0138 -0.574341 78.0285 -0.413515 78.1331C-0.252687 78.2378 -0.157049 78.4178 -0.160433 78.6097C-0.326899 88.1042 2.52017 91.7888 3.88844 93.5594C3.9525 93.6424 3.99175 93.7417 4.00212 93.8459C4.39551 97.867 4.98288 103.032 5.40829 105.507C5.44664 105.73 5.46558 105.996 5.48769 106.303C5.62709 108.246 5.92438 109.859 8.15791 109.909C8.35258 109.913 8.54408 109.915 8.73107 109.915C11.4543 109.915 13.382 109.523 13.382 104.444V97.3778C13.382 97.3112 13.3935 97.2449 13.4169 97.1822C13.511 96.9294 13.7726 96.7807 14.0377 96.8283C14.0684 96.8337 14.0981 96.8419 14.127 96.8522C14.2066 96.861 14.4475 96.8795 15.0857 96.8795C15.4944 96.8795 15.6945 96.8236 15.7554 96.8026C15.8469 96.7277 15.9493 96.6932 16.0563 96.6932ZM21.7642 111.029C18.5036 111.029 15.4865 110.232 15.4865 104.444V97.9773C15.3676 97.9875 15.2343 97.9934 15.0857 97.9934C14.8644 97.9934 14.6684 97.9934 14.4958 97.9895V104.444C14.4958 107.124 13.9867 108.845 12.8939 109.859C11.785 110.887 10.2378 111.029 8.73107 111.029C8.53596 111.029 8.33611 111.027 8.13333 111.022C4.70408 110.946 4.48303 107.864 4.37656 106.382C4.35671 106.105 4.33957 105.865 4.31047 105.696C3.88596 103.226 3.30423 98.1314 2.90904 94.1137C1.47446 92.2525 -1.27111 88.493 -1.28126 79.4515C-3.79788 80.4761 -7.62457 81.4629 -10.955 81.4629C-14.4655 81.4629 -16.6663 80.3622 -17.3195 78.2797C-18.8958 73.2555 -15.6328 71.7307 -11.1165 69.6208C-7.35096 67.8614 -2.66509 65.6721 1.90438 60.7435C3.67303 58.8361 4.35581 46.3652 4.58024 42.2671C4.66754 40.6692 4.78032 39.086 4.88927 37.5551C5.12679 34.2183 5.35145 31.0665 5.35145 27.6296C5.35145 26.7718 5.31175 25.8704 5.2734 24.9984C5.17934 22.8587 5.08235 20.6459 5.51746 18.5606C5.95303 16.4732 6.88077 16.0352 7.5825 16.0352C9.04618 16.0352 10.5539 18.0833 11.213 19.7369C11.9801 19.6045 13.5954 19.3767 15.6248 19.3767C17.4313 19.3767 19.1445 19.558 20.7257 19.916C21.3437 18.2353 22.9078 16.0352 24.4249 16.0352C25.1264 16.0352 26.0544 16.4732 26.4899 18.5606C26.9251 20.6461 26.8278 22.8589 26.734 24.9986C26.6957 25.8704 26.656 26.7718 26.656 27.6296C26.656 33.0693 27.0261 37.8697 27.4258 42.2468C28.0089 48.6337 29.662 60.1061 30.1107 61.3954C30.2611 61.8278 30.5968 62.6811 31.0222 63.7618C33.2672 69.4661 35.6104 75.6492 35.8062 78.6007C35.8784 78.5601 35.9605 78.5355 36.0475 78.5308L43.0236 78.1505C43.3242 78.1334 43.5825 78.3587 43.6089 78.658C43.6351 78.9571 43.4192 79.2235 43.121 79.2594L42.1116 79.3821C40.5457 79.572 39.3516 79.7166 38.4284 79.8276C39.2512 80.4853 40.0195 81.3937 40.0935 82.5221C40.1769 83.7982 39.3683 85.0584 37.6903 86.2679C37.5148 86.3942 37.2821 86.4075 37.0935 86.3026C35.379 85.3462 33.6545 84.171 31.9563 82.8025C31.3626 86.5487 30.2747 91.1186 28.3312 93.6228C28.199 95.1799 27.4186 102.195 26.8168 105.696C26.8001 105.793 26.7834 105.905 26.7649 106.028C26.5443 107.498 26.028 110.941 22.3671 111.022C22.1636 111.027 21.9627 111.029 21.7642 111.029Z" fill="black"/>
<path fill-rule="evenodd" clip-rule="evenodd" d="M18.7961 4.67383H13.1947C10.7613 4.67383 8.77051 6.66466 8.77051 9.09804C8.77051 11.5312 10.7613 13.5222 13.1947 13.5222H14.7006V16.0118L17.1899 13.5222H18.7961C21.2293 13.5222 23.2201 11.5312 23.2201 9.09804C23.2201 6.66466 21.2293 4.67383 18.7961 4.67383Z" fill="white"/>
<path fill-rule="evenodd" clip-rule="evenodd" d="M13.1949 5.24111C11.0683 5.24111 9.33824 6.97141 9.33824 9.09847C9.33824 11.2251 11.0683 12.9556 13.1949 12.9556H14.7012C15.0139 12.9556 15.2681 13.2094 15.2681 13.5227V14.6435L16.7893 13.1219C16.8958 13.0154 17.0401 12.9556 17.1903 12.9556H18.7966C20.9234 12.9556 22.6535 11.2251 22.6535 9.09847C22.6535 6.97141 20.9234 5.24111 18.7966 5.24111H13.1949ZM14.7012 16.5789C14.6279 16.5789 14.5544 16.5649 14.484 16.5358C14.2722 16.448 14.1342 16.2414 14.1342 16.012V14.0895H13.1949C10.4428 14.0895 8.2041 11.8506 8.2041 9.09847C8.2041 6.34614 10.4428 4.10742 13.1949 4.10742H18.7966C21.5487 4.10742 23.7874 6.34614 23.7874 9.09847C23.7874 11.8506 21.5487 14.0895 18.7966 14.0895H17.4252L15.1021 16.4126C14.9933 16.5213 14.8485 16.5789 14.7012 16.5789Z" fill="black"/>
<path fill-rule="evenodd" clip-rule="evenodd" d="M16.8914 10.5916L16.2386 11.257C16.1184 11.3795 15.9217 11.3815 15.7992 11.2613L13.8028 9.3027C13.3147 8.82383 13.307 8.03278 13.7859 7.54488C14.2645 7.05676 15.0556 7.04932 15.5437 7.52796L16.8745 8.83375C17.3626 9.3124 17.3703 10.1035 16.8914 10.5916Z" fill="#FF6767"/>
<path fill-rule="evenodd" clip-rule="evenodd" d="M15.1414 10.6083L15.8071 11.2613C15.9296 11.3813 16.1263 11.3795 16.2465 11.2567L18.2051 9.26028C18.6837 8.77239 18.676 7.98134 18.1881 7.50246C17.7 7.02382 16.909 7.03149 16.4303 7.51961L15.1248 8.85043C14.6459 9.33855 14.6536 10.1294 15.1414 10.6083Z" fill="#FF6767"/>
</g>
</svg>
