<svg width="30" height="30" viewBox="0 0 30 30" fill="none" xmlns="http://www.w3.org/2000/svg">
<path d="M14.9998 3C18.4553 3 21.2589 5.68357 21.4307 9.03818L21.4391 9.36485V14.4876C21.4391 15.1989 20.8625 15.7755 20.1512 15.7755L-nan -nanL20.1512 15.7755C19.44 15.7755 18.8634 15.1989 18.8634 14.4876V9.36485C18.8634 7.2054 17.1229 5.47268 14.9998 5.47268C12.9652 5.47268 11.282 7.06402 11.1452 9.09723L11.1363 9.36485V14.4876C11.1363 15.1989 10.5597 15.7755 9.8484 15.7755L-nan -nanL9.8484 15.7755C9.13714 15.7755 8.56055 15.1989 8.56055 14.4876V9.36485C8.56055 5.8595 11.4328 3 14.9998 3Z" fill="#D8D8D8"/>
<path d="M21.4307 9.03818L21.9807 9.02413L21.98 9.01004L21.4307 9.03818ZM21.4391 9.36485H21.9892L21.9889 9.3508L21.4391 9.36485ZM11.1452 9.09723L10.5965 9.06033C10.596 9.06649 10.5957 9.07265 10.5955 9.07882L11.1452 9.09723ZM11.1363 9.36485L10.5866 9.34643C10.5864 9.35257 10.5863 9.35871 10.5863 9.36485H11.1363ZM14.9998 3.55C18.1655 3.55 20.7247 6.00713 20.8814 9.06632L21.98 9.01004C21.793 5.36002 18.7452 2.45 14.9998 2.45V3.55ZM20.8809 9.05223L20.8892 9.3789L21.9889 9.3508L21.9805 9.02413L20.8809 9.05223ZM20.8891 9.36485V14.4876H21.9891V9.36485H20.8891ZM19.4134 14.4876V9.36485H18.3134V14.4876H19.4134ZM19.4134 9.36485C19.4134 6.90358 17.4286 4.92268 14.9998 4.92268V6.02268C16.8172 6.02268 18.3134 7.50723 18.3134 9.36485H19.4134ZM14.9998 4.92268C12.6721 4.92268 10.7524 6.74199 10.5965 9.06033L11.694 9.13414C11.8115 7.38604 13.2583 6.02268 14.9998 6.02268V4.92268ZM10.5955 9.07882L10.5866 9.34643L11.6859 9.38327L11.6949 9.11565L10.5955 9.07882ZM10.5863 9.36485V14.4876H11.6863V9.36485H10.5863ZM9.11055 14.4876V9.36485H8.01055V14.4876H9.11055ZM9.11055 9.36485C9.11055 6.16812 11.7317 3.55 14.9998 3.55V2.45C11.1339 2.45 8.01055 5.55088 8.01055 9.36485H9.11055ZM9.8484 15.2255C9.44089 15.2255 9.11055 14.8951 9.11055 14.4876H8.01055C8.01055 15.5027 8.83338 16.3255 9.8484 16.3255V15.2255ZM10.5863 14.4876C10.5863 14.8951 10.2559 15.2255 9.8484 15.2255V16.3255C10.8634 16.3255 11.6863 15.5027 11.6863 14.4876H10.5863ZM20.1512 15.2255C19.7437 15.2255 19.4134 14.8951 19.4134 14.4876H18.3134C18.3134 15.5027 19.1362 16.3255 20.1512 16.3255V15.2255ZM20.8891 14.4876C20.8891 14.8951 20.5587 15.2255 20.1512 15.2255V16.3255C21.1662 16.3255 21.9891 15.5027 21.9891 14.4876H20.8891Z" fill="#666666"/>
<path fill-rule="evenodd" clip-rule="evenodd" d="M6.6 12C5.71634 12 5 12.7163 5 13.6V24.4C5 25.2837 5.71635 26 6.6 26H23.4C24.2837 26 25 25.2837 25 24.4V13.6C25 12.7163 24.2837 12 23.4 12H6.6ZM15 21C16.1046 21 17 20.1046 17 19C17 17.8954 16.1046 17 15 17C13.8954 17 13 17.8954 13 19C13 20.1046 13.8954 21 15 21Z" fill="#FFD079"/>
<path d="M5.55 13.6C5.55 13.0201 6.0201 12.55 6.6 12.55V11.45C5.41259 11.45 4.45 12.4126 4.45 13.6H5.55ZM5.55 24.4V13.6H4.45V24.4H5.55ZM6.6 25.45C6.0201 25.45 5.55 24.9799 5.55 24.4H4.45C4.45 25.5874 5.41259 26.55 6.6 26.55V25.45ZM23.4 25.45H6.6V26.55H23.4V25.45ZM24.45 24.4C24.45 24.9799 23.9799 25.45 23.4 25.45V26.55C24.5874 26.55 25.55 25.5874 25.55 24.4H24.45ZM24.45 13.6V24.4H25.55V13.6H24.45ZM23.4 12.55C23.9799 12.55 24.45 13.0201 24.45 13.6H25.55C25.55 12.4126 24.5874 11.45 23.4 11.45V12.55ZM6.6 12.55H23.4V11.45H6.6V12.55ZM16.45 19C16.45 19.8008 15.8008 20.45 15 20.45V21.55C16.4083 21.55 17.55 20.4083 17.55 19H16.45ZM15 17.55C15.8008 17.55 16.45 18.1992 16.45 19H17.55C17.55 17.5917 16.4083 16.45 15 16.45V17.55ZM13.55 19C13.55 18.1992 14.1992 17.55 15 17.55V16.45C13.5917 16.45 12.45 17.5917 12.45 19H13.55ZM15 20.45C14.1992 20.45 13.55 19.8008 13.55 19H12.45C12.45 20.4083 13.5917 21.55 15 21.55V20.45Z" fill="#666666"/>
</svg>
