<svg width="32" height="32" viewBox="0 0 32 32" fill="none" xmlns="http://www.w3.org/2000/svg">
<circle cx="16" cy="16" r="16" fill="#EDEDEE"/>
<path fill-rule="evenodd" clip-rule="evenodd" d="M21.5507 11.5043C21.7744 11.2103 21.752 10.7889 21.4835 10.5205C21.1906 10.2276 20.7158 10.2276 20.4229 10.5205L16.0035 14.9399L11.584 10.5205L11.5072 10.4533C11.2133 10.2296 10.7919 10.252 10.5234 10.5205C10.2305 10.8133 10.2305 11.2882 10.5234 11.5811L14.9428 16.0005L10.5234 20.4199L10.4563 20.4967C10.2325 20.7907 10.2549 21.2121 10.5234 21.4806C10.8163 21.7735 11.2911 21.7735 11.584 21.4806L16.0035 17.0612L20.4229 21.4806L20.4997 21.5477C20.7937 21.7715 21.2151 21.7491 21.4835 21.4806C21.7764 21.1877 21.7764 20.7128 21.4835 20.4199L17.0641 16.0005L21.4835 11.5811L21.5507 11.5043Z" fill="#A4A7AD"/>
</svg>
