<svg width="32" height="32" viewBox="0 0 32 32" fill="none" xmlns="http://www.w3.org/2000/svg">
<circle cx="16" cy="16" r="16" fill="#EDEDEE"/>
<path fill-rule="evenodd" clip-rule="evenodd" d="M20.0614 12.52C20.3543 12.2271 20.3543 11.7522 20.0614 11.4593L17.0309 8.42888L16.9265 8.3339C16.3513 7.85902 15.4983 7.89068 14.9601 8.42888L11.9297 11.4593L11.8625 11.5361C11.6388 11.8301 11.6612 12.2515 11.9297 12.52L12.0065 12.5871C12.3004 12.8109 12.7218 12.7885 12.9903 12.52L15.25 10.2598V17.4541L15.2568 17.5559C15.3065 17.922 15.6203 18.2041 16 18.2041C16.4142 18.2041 16.75 17.8683 16.75 17.4541V10.2687L19.0007 12.52L19.0775 12.5871C19.3715 12.8109 19.7929 12.7885 20.0614 12.52ZM23 17.7041C23.3797 17.7041 23.6935 17.9863 23.7432 18.3524L23.75 18.4541V20.4541C23.75 21.645 22.8248 22.6198 21.654 22.6989L21.5 22.7041H10.5C9.30914 22.7041 8.33436 21.779 8.25519 20.6082L8.25 20.4541V18.4541C8.25 18.0399 8.58579 17.7041 9 17.7041C9.3797 17.7041 9.69349 17.9863 9.74315 18.3524L9.75 18.4541V20.4541C9.75 20.8338 10.0322 21.1476 10.3982 21.1973L10.5 21.2041H21.5C21.8797 21.2041 22.1935 20.922 22.2432 20.5559L22.25 20.4541V18.4541C22.25 18.0399 22.5858 17.7041 23 17.7041Z" fill="#A4A7AD"/>
</svg>
