<svg width="16" height="16" viewBox="0 0 16 16" fill="none" xmlns="http://www.w3.org/2000/svg">
<circle cx="8" cy="8" r="7.5" fill="white" stroke="#C6C8CC"/>
<path fill-rule="evenodd" clip-rule="evenodd" d="M8.76205 9.22798V9.64598H7.27705V9.15098C7.29905 8.83565 7.35955 8.57165 7.45855 8.35898C7.55755 8.14632 7.67305 7.96482 7.80505 7.81448C7.93705 7.66415 8.07638 7.53398 8.22305 7.42398C8.36972 7.31398 8.50538 7.20398 8.63005 7.09398C8.75472 6.98398 8.85555 6.86298 8.93255 6.73098C9.00955 6.59898 9.04438 6.43398 9.03705 6.23598C9.03705 5.89865 8.95455 5.64932 8.78955 5.48798C8.62455 5.32665 8.39538 5.24598 8.10205 5.24598C7.90405 5.24598 7.73355 5.28448 7.59055 5.36148C7.44755 5.43848 7.33022 5.54115 7.23855 5.66948C7.14688 5.79782 7.07905 5.94815 7.03505 6.12048C6.99105 6.29282 6.96905 6.47798 6.96905 6.67598H5.35205C5.35938 6.27998 5.42722 5.91698 5.55555 5.58698C5.68388 5.25698 5.86355 4.97098 6.09455 4.72898C6.32555 4.48698 6.60422 4.29815 6.93055 4.16248C7.25688 4.02682 7.62172 3.95898 8.02505 3.95898C8.54572 3.95898 8.98022 4.03048 9.32855 4.17348C9.67688 4.31648 9.95738 4.49432 10.1701 4.70698C10.3827 4.91965 10.5349 5.14882 10.6266 5.39448C10.7182 5.64015 10.7641 5.86932 10.7641 6.08198C10.7641 6.43398 10.7182 6.72365 10.6266 6.95098C10.5349 7.17832 10.4212 7.37265 10.2856 7.53398C10.1499 7.69532 9.99955 7.83282 9.83455 7.94648C9.66955 8.06015 9.51372 8.17382 9.36705 8.28748C9.22038 8.40115 9.09022 8.53132 8.97655 8.67798C8.86288 8.82465 8.79138 9.00798 8.76205 9.22798ZM8.85005 10.3062V12.0002H7.12305V10.3062H8.85005Z" fill="#A4A7AD"/>
</svg>
